PathFileType	4	(X/Y/Z)	 s06c0401.trc
DataRate	CameraRate	NumFrames	NumMarkers	Units	OrigDataRate	OrigDataStartFrame	OrigNumFrames
200	200	7	48	mm	200	751	2000
Frame#	Time	racr			lacr			c7			jug			rlel			rdr			llel			ldr			s2			lic			ric			lasi			rasi			rpsi			lpsi			rgt			lgt			rth1			rth2			rth3			rth4			rlfc			rmfc			rsh1			rsh2			rsh3			rsh4			rlmal			rcal			rtoe			rmt5			lth1			lth2			lth4			lth3			llfc			lmfc			llmal			lcal			lmt5			lsh1			lsh2			lsh3			lsh4			ltoe			SBIKE			LBIKE			RBIKE			
		X1	Y1	Z1	X2	Y2	Z2	X3	Y3	Z3	X4	Y4	Z4	X5	Y5	Z5	X6	Y6	Z6	X7	Y7	Z7	X8	Y8	Z8	X9	Y9	Z9	X10	Y10	Z10	X11	Y11	Z11	X12	Y12	Z12	X13	Y13	Z13	X14	Y14	Z14	X15	Y15	Z15	X16	Y16	Z16	X17	Y17	Z17	X18	Y18	Z18	X19	Y19	Z19	X20	Y20	Z20	X21	Y21	Z21	X22	Y22	Z22	X23	Y23	Z23	X24	Y24	Z24	X25	Y25	Z25	X26	Y26	Z26	X27	Y27	Z27	X28	Y28	Z28	X29	Y29	Z29	X30	Y30	Z30	X31	Y31	Z31	X32	Y32	Z32	X33	Y33	Z33	X34	Y34	Z34	X35	Y35	Z35	X36	Y36	Z36	X37	Y37	Z37	X38	Y38	Z38	X39	Y39	Z39	X40	Y40	Z40	X41	Y41	Z41	X42	Y42	Z42	X43	Y43	Z43	X44	Y44	Z44	X45	Y45	Z45	X46	Y46	Z46	X47	Y47	Z47	X48	Y48	Z48	
751	3.7550	761.260956	1147.656099	-90.152134	732.409745	1119.457958	-416.975947	793.919282	1242.123353	-258.814813	723.455313	1068.526744	-248.150443	554.003535	1062.600823	79.316423	667.455148	931.930088	-37.716228	511.063841	1020.038708	-536.022514	652.387804	930.830030	-413.806627	223.656890	1235.128847	-207.109378	352.310045	1180.328067	-393.744671	357.680972	1135.421021	-58.016574	358.346904	1127.390418	-362.926667	375.032097	1091.420229	-102.503153	271.167100	1258.736411	-178.155087	263.784529	1265.149459	-238.214953	288.393701	1062.415313	-43.817855	329.517376	1155.856826	-412.522250	306.797142	934.955576	-35.454673	325.773647	847.416904	-44.444106	300.275008	764.999824	-52.590170	361.514450	848.365916	-56.921926	283.002797	658.477493	-64.277322	268.926416	635.844475	-177.987476	231.856243	547.188567	-36.823077	218.393159	463.033212	-55.023173	165.678226	393.031844	-57.757851	239.728812	456.592742	-89.332099	129.264698	322.428384	-64.886319	72.984772	345.009441	-110.935974	216.295782	106.915474	-98.313781	142.547039	177.811393	-36.716877	375.388713	1057.473886	-432.704522	448.157620	1014.434207	-425.715605	472.498336	1036.984833	-406.092152	493.991662	934.191354	-424.897948	539.504773	826.335588	-394.193968	535.484843	812.412501	-275.803573	251.118047	575.360198	-384.918361	167.335311	570.351780	-338.128449	339.739724	472.564621	-408.749815	463.483986	746.404116	-414.752902	412.247853	678.460590	-396.646235	333.392272	639.432935	-403.464978	430.433865	662.331502	-366.002749	422.407796	452.344011	-348.349768	-203.546448	871.305319	-214.175914	-48.899620	84.444883	-419.794478	-50.653076	81.162205	-22.457483	
752	3.7600	761.528470	1146.520471	-91.047381	730.899260	1118.364182	-417.320920	793.433075	1241.577581	-259.459712	722.203484	1067.973575	-248.544581	554.271765	1063.103103	79.363835	667.179148	931.765407	-37.406545	509.890186	1018.935351	-536.112824	651.464295	930.867397	-413.887511	223.957911	1237.743552	-208.063621	351.937907	1181.724113	-393.792834	354.969973	1138.195676	-58.472185	357.427010	1128.607298	-362.996043	372.737796	1094.154352	-102.753706	271.136307	1261.246898	-178.966368	264.935992	1267.441291	-239.075239	287.566877	1064.853597	-43.716585	328.893650	1157.304210	-412.683469	309.195169	936.738149	-35.653551	330.140930	849.226417	-46.003233	305.861307	766.449195	-54.883314	365.378995	851.080853	-58.273190	289.993648	659.085770	-66.122140	273.047199	637.366943	-179.338089	236.385934	549.602713	-37.914308	219.898262	466.153874	-56.483475	164.973270	397.781188	-58.046528	240.067150	459.185163	-91.551952	125.404601	328.568806	-64.911554	69.184993	352.770077	-110.451484	206.648970	111.246419	-98.842479	134.955400	183.753132	-36.945998	372.950003	1058.216337	-433.008503	446.106468	1013.962947	-425.763883	470.349519	1036.324153	-406.469433	489.693468	933.435665	-425.822481	534.279543	823.579054	-395.398536	530.014564	808.783183	-277.402801	252.622624	565.248911	-384.242553	170.017726	556.693275	-336.089394	345.482624	466.746458	-409.621311	459.781008	741.564197	-415.771492	410.853804	672.210350	-397.015018	333.464967	630.709511	-403.847454	429.281938	656.514672	-365.120145	429.751528	450.193803	-350.602971	-203.564437	871.312921	-214.411203	-48.915799	84.381510	-419.825019	-50.660722	81.175555	-22.483858	
753	3.7650	757.254680	1146.946604	-92.326118	729.455896	1117.435280	-417.578938	792.941753	1241.109626	-260.130611	721.223059	1067.537933	-248.520508	554.450329	1063.691519	79.448378	666.683810	931.749045	-36.937068	508.625344	1017.831009	-536.354740	650.543012	930.833935	-413.658602	223.997082	1239.851441	-208.707053	351.540834	1182.888966	-393.813224	352.411612	1140.101807	-59.347006	356.789482	1129.736600	-362.849673	370.110569	1095.909850	-103.505864	271.225855	1263.162511	-179.647536	264.978637	1269.578919	-240.026904	286.988960	1067.228799	-43.680546	327.908633	1158.026089	-412.840485	311.125959	938.012512	-37.159054	333.812582	851.264609	-47.845408	312.271591	768.005243	-55.795576	369.021427	853.816880	-60.308874	297.093170	659.730335	-67.886698	277.892994	639.035117	-179.734410	241.722301	552.152740	-39.157133	222.264727	469.297561	-58.187669	165.833934	402.346712	-58.623152	242.262191	462.090429	-93.806322	122.518986	334.979291	-64.867702	66.632266	360.387458	-110.601806	197.254640	115.686023	-99.296821	127.701698	189.947424	-37.180014	370.371495	1058.038134	-433.441074	443.610982	1012.608454	-426.145625	467.917742	1034.811782	-407.206702	484.931121	932.091489	-426.984847	528.621176	820.320779	-397.014412	524.351200	804.851976	-278.872199	254.760546	554.690152	-383.227896	172.810420	542.918718	-333.976975	351.172497	460.446516	-410.167222	455.999541	736.001767	-416.278661	409.366228	665.320604	-396.926012	333.725223	621.154128	-403.434133	428.564818	650.718382	-365.556509	436.678016	446.953819	-351.743852	-203.612157	871.255160	-214.598759	-48.937591	84.344652	-419.869167	-50.683128	81.165604	-22.505559	
754	3.7700	757.039547	1146.360325	-92.517373	728.146880	1116.431073	-417.858211	792.475238	1240.780095	-260.433055	720.329475	1067.271687	-248.326630	554.696533	1064.308532	79.918008	666.198405	931.636767	-36.340684	507.440739	1016.719727	-536.411236	649.655130	930.733633	-413.341559	224.052168	1241.557173	-209.229159	351.147954	1183.604904	-393.767485	351.379938	1142.172200	-59.097047	356.016732	1130.350501	-362.729820	369.396964	1097.804857	-102.950353	271.399683	1264.535036	-180.200127	264.965255	1271.209968	-240.728359	286.589686	1069.307492	-43.212642	326.445362	1158.287735	-412.892940	313.664185	939.432174	-38.091962	337.717928	853.068633	-49.851203	318.233230	769.391401	-57.562103	373.114036	856.557403	-61.959442	304.633905	660.437616	-69.453059	283.389653	640.657567	-180.588439	247.554222	554.821880	-40.608685	225.333493	472.408146	-60.338111	167.111220	407.308293	-59.164632	243.999285	465.654606	-95.704470	120.037653	341.644027	-64.963009	64.487492	368.694094	-110.545809	188.217880	120.582600	-99.591503	120.971751	196.635310	-37.389379	367.682723	1057.137050	-433.895014	440.717290	1010.452044	-426.766190	465.143186	1032.625664	-408.297665	480.557765	929.842221	-428.206120	522.830519	816.343008	-398.095554	518.828117	800.419041	-280.214516	257.239550	543.848654	-382.222215	175.857708	529.230488	-332.953641	357.115675	453.955686	-410.336141	452.022620	730.195096	-416.601037	407.721889	658.043599	-396.533311	333.618849	611.502921	-402.259405	427.723988	644.111773	-365.187588	443.144453	443.172355	-351.702883	-203.654379	871.173784	-214.733794	-48.938943	84.285685	-419.903442	-50.707828	81.101065	-22.562251	
755	3.7750	756.817055	1145.838266	-92.484351	727.056890	1115.476733	-418.058444	792.239366	1240.619952	-261.282277	719.415459	1067.284884	-247.854580	554.731508	1064.935343	80.141836	665.771808	931.657636	-35.608098	506.380017	1015.600549	-536.366900	648.866321	930.681670	-412.893957	223.881293	1242.333813	-209.597334	350.671586	1183.984918	-393.756549	351.057205	1144.086150	-57.537457	354.004993	1130.241702	-363.173028	370.126769	1099.689772	-100.913721	271.621730	1265.416260	-180.625677	264.950938	1272.336121	-241.243317	286.547546	1071.157366	-42.665838	326.912612	1158.797973	-414.612274	315.951575	940.461581	-39.322393	342.463300	854.872163	-50.651964	324.767896	770.795373	-58.229721	377.289745	859.302821	-63.583980	312.520057	661.266129	-70.729291	289.230072	642.558211	-181.673830	253.681410	557.449665	-42.003593	228.462162	475.942751	-61.745936	168.483735	412.501596	-59.801338	246.073607	468.812104	-97.600970	117.662272	348.669491	-65.073477	62.312054	378.810081	-109.124189	178.506370	124.899875	-100.881322	114.550024	203.718473	-37.484535	364.893378	1055.528728	-434.503564	437.487001	1007.607011	-427.470028	462.130160	1029.740961	-409.639479	479.004443	925.769539	-427.456103	516.777222	812.125955	-399.232822	513.556161	795.580736	-281.386262	260.009885	532.733752	-381.402753	178.598065	515.370295	-331.986962	362.307486	446.353592	-410.527562	447.927675	723.946772	-416.786956	406.088199	650.396519	-396.238581	333.829138	601.261421	-399.893087	426.829655	637.443361	-364.963519	448.914854	438.322377	-352.254749	-203.671820	871.093058	-214.702050	-48.951213	84.266575	-419.916855	-50.708291	81.060564	-22.572493	
756	3.7800	756.574719	1145.577185	-92.328367	726.378309	1114.426774	-418.350677	791.938793	1240.485487	-261.737802	719.716292	1069.162061	-243.071014	554.789603	1065.604423	80.427278	665.408675	931.649609	-34.894552	505.402007	1014.433614	-536.250612	648.144162	930.488245	-412.306176	223.673581	1243.378190	-209.849125	350.042878	1184.013055	-393.709206	350.125888	1145.577725	-57.385776	353.518298	1130.233979	-363.011211	369.545121	1101.040768	-100.461752	271.855935	1265.857970	-180.925722	263.190599	1273.436939	-240.503794	286.915918	1072.663325	-42.003759	325.415110	1157.956674	-414.863902	318.686495	941.743425	-40.645215	347.299951	856.846236	-51.628089	331.558272	772.140114	-59.128476	381.736683	861.901803	-65.012980	319.895127	662.791117	-71.936800	295.509915	644.819490	-182.943029	259.753964	559.905110	-43.557822	230.838003	479.450250	-63.555632	169.468142	418.059783	-60.290192	248.314684	471.864977	-99.276088	115.525758	356.008117	-65.065896	61.569019	386.505663	-110.067254	170.550679	131.025082	-100.768805	108.566133	211.426373	-37.405432	362.041213	1053.198814	-434.903164	434.079907	1004.068649	-428.063404	458.972862	1026.144407	-411.030109	475.759680	922.133414	-428.273234	510.571862	807.557238	-399.743800	508.638389	790.360216	-282.695733	262.806834	521.666724	-380.856455	182.304259	501.350829	-330.906299	367.091476	437.937805	-410.841394	443.866236	717.268846	-417.044543	404.516713	642.422514	-396.098956	333.873478	591.082676	-398.276275	425.851321	630.218418	-364.723307	454.298605	432.384943	-353.144229	-203.622774	871.049843	-214.540492	-48.951087	84.234572	-419.867610	-50.697416	81.025029	-22.527672	
757	3.7850	755.929470	1145.447307	-92.280623	725.524858	1113.503205	-418.452341	791.689076	1240.423015	-262.259766	719.432379	1069.033709	-242.533744	554.846577	1066.381867	80.817628	665.100634	931.620890	-34.107070	504.537241	1013.243922	-535.997924	647.577909	930.327026	-411.635047	223.271608	1243.942167	-209.857843	349.349965	1183.539933	-393.710342	349.316376	1146.519082	-57.222734	352.916551	1129.720753	-362.898627	368.961152	1101.830733	-100.038865	272.066236	1265.911951	-181.101796	262.934086	1273.599598	-240.777346	287.583763	1073.812693	-41.173547	323.771692	1156.652413	-415.125301	322.087777	942.979094	-41.994331	352.364956	858.580991	-52.437892	338.499877	773.454231	-59.702390	386.463709	864.386188	-66.264700	327.647578	664.547569	-72.961032	302.234772	647.302735	-184.252369	265.534173	562.686371	-44.597138	234.588266	484.294390	-63.342091	170.341165	423.574071	-60.952017	250.632653	475.414117	-100.354213	113.487803	363.866029	-64.963212	60.024325	395.689266	-110.041401	163.070918	137.719350	-100.767397	102.997993	219.607985	-37.421088	359.109271	1050.229914	-435.008742	430.518419	1000.010882	-428.551275	455.661480	1022.092363	-412.303696	470.503921	917.698408	-428.918017	504.170055	802.680860	-400.170187	504.333910	784.681382	-283.081453	265.269955	509.886719	-380.552138	185.980163	487.696873	-330.266578	371.992748	428.807726	-410.807298	439.884956	710.119917	-417.479901	402.939391	634.085423	-396.068360	335.159857	580.583095	-397.873852	424.821133	622.920498	-365.286229	459.414174	425.565614	-353.397441	-203.541326	871.009748	-214.305140	-48.945305	84.221515	-419.841322	-50.678607	80.978353	-22.497290	
